<svg xmlns="http://www.w3.org/2000/svg" viewBox="0 0 155.91 198.43"><defs><style>.cls-1{fill:#838e99;}.cls-2{fill:#fcfcfc;}.cls-3{fill:#fefefe;}.cls-4{fill:#5faaaa;opacity:0.75;}</style></defs><title>default_avatar</title><g id="Capa_2" data-name="Capa 2"><g id="Capa_1-2" data-name="Capa 1"><path class="cls-1" d="M155.91,0H0V198.43H12.53a29.3,29.3,0,0,1-.08-11.64c3.21-17.46,9.49-33,17.92-45.36,5.25-7.67,14.16-10,21.5-5.55a50.07,50.07,0,0,0,52.51.09c7.31-4.39,16.21-2.14,21.42,5.5,8.42,12.33,14.69,27.89,17.9,45.33a29.63,29.63,0,0,1-.08,11.63h12.29Z"/><path class="cls-2" d="M143.7,186.8c-3.21-17.44-9.48-33-17.9-45.33-5.21-7.64-14.11-9.89-21.42-5.5a50.07,50.07,0,0,1-52.51-.09c-7.34-4.42-16.25-2.12-21.5,5.55-8.43,12.33-14.71,27.9-17.92,45.36a29.3,29.3,0,0,0,.08,11.64H143.62A29.63,29.63,0,0,0,143.7,186.8Z"/><circle class="cls-3" cx="78.07" cy="81.34" r="44.6"/><circle class="cls-4" cx="78.07" cy="81.34" r="14.17"/></g></g></svg>