<svg xmlns="http://www.w3.org/2000/svg" viewBox="0 0 2502.38 536.12"><defs><style>.cls-1{fill:#f3f3f3;}.cls-2{fill:#69e4b9;}.cls-3{fill:#4d5867;}.cls-4{fill:#fff;stroke:#000;stroke-miterlimit:10;}</style></defs><title>Colour_palette_1</title><g id="Capa_2" data-name="Capa 2"><g id="Capa_1-2" data-name="Capa 1"><path class="cls-1" d="M769.85,535.62c-147.54,0-267.56-120-267.56-267.56S622.31.5,769.85.5a267.87,267.87,0,0,1,199.8,89.63,50.62,50.62,0,1,1-75.58,67.35,166.58,166.58,0,0,0-124.22-55.74c-91.71,0-166.32,74.61-166.32,166.32s74.61,166.32,166.32,166.32a166.59,166.59,0,0,0,124.22-55.74A50.62,50.62,0,1,1,969.65,446,267.88,267.88,0,0,1,769.85,535.62Z"/><path d="M2289.74,535.62c-147.53,0-267.55-120-267.55-267.56S2142.21.5,2289.74.5a267.89,267.89,0,0,1,199.81,89.63A50.62,50.62,0,0,1,2414,157.48a166.56,166.56,0,0,0-124.22-55.74c-91.71,0-166.31,74.61-166.31,166.32s74.6,166.32,166.31,166.32A166.56,166.56,0,0,0,2414,378.64,50.62,50.62,0,0,1,2489.55,446,267.9,267.9,0,0,1,2289.74,535.62Z"/><path class="cls-2" d="M1282.6,535.62c-147.54,0-267.56-120-267.56-267.56S1135.06.5,1282.6.5a267.87,267.87,0,0,1,199.8,89.63,50.62,50.62,0,1,1-75.58,67.35,166.58,166.58,0,0,0-124.22-55.74c-91.71,0-166.32,74.61-166.32,166.32s74.61,166.32,166.32,166.32a166.59,166.59,0,0,0,124.22-55.74A50.62,50.62,0,1,1,1482.4,446,267.88,267.88,0,0,1,1282.6,535.62Z"/><path class="cls-3" d="M1781.5,535.62c-147.53,0-267.56-120-267.56-267.56S1634,.5,1781.5.5a267.9,267.9,0,0,1,199.81,89.63,50.62,50.62,0,0,1-75.59,67.35,166.58,166.58,0,0,0-124.22-55.74c-91.71,0-166.32,74.61-166.32,166.32s74.61,166.32,166.32,166.32a166.58,166.58,0,0,0,124.22-55.74A50.62,50.62,0,0,1,1981.31,446,267.92,267.92,0,0,1,1781.5,535.62Z"/><path class="cls-4" d="M268.06,535.62C120.52,535.62.5,415.59.5,268.06S120.52.5,268.06.5a267.87,267.87,0,0,1,199.8,89.63,50.62,50.62,0,1,1-75.58,67.35,166.58,166.58,0,0,0-124.22-55.74c-91.71,0-166.32,74.61-166.32,166.32s74.61,166.32,166.32,166.32a166.59,166.59,0,0,0,124.22-55.74A50.62,50.62,0,1,1,467.86,446,267.88,267.88,0,0,1,268.06,535.62Z"/></g></g></svg>