<svg xmlns="http://www.w3.org/2000/svg" viewBox="0 0 195.93 35.51"><title>Tipography</title><g id="Capa_2" data-name="Capa 2"><g id="Capa_1-2" data-name="Capa 1"><path d="M14.74,22.85c.47,0,.71.25.72.74L16,35.27H14.2l-.45-11h-.36l-2.63,8.91a.7.7,0,0,1-.75.6H8.53a.74.74,0,0,1-.79-.6L5.11,24.31H4.75l-.41,11H2.57l.49-11.68c0-.49.26-.74.72-.74H5.72a.74.74,0,0,1,.76.6l2.18,7.34a8.56,8.56,0,0,1,.23.83c.06.28.13.56.22.86h.31c.08-.3.15-.58.22-.86s.14-.56.22-.86L12,23.45a.71.71,0,0,1,.76-.6Z"/><path d="M22.28,26.27a4.78,4.78,0,0,1,2.95.73,2.62,2.62,0,0,1,.91,2.15A2.73,2.73,0,0,1,25.62,31a2.09,2.09,0,0,1-1.72.65H18.83V30.4h4.62a.78.78,0,0,0,.78-.38,2,2,0,0,0,.18-.87A1.37,1.37,0,0,0,23.93,28a2.68,2.68,0,0,0-1.57-.34,3.13,3.13,0,0,0-1.44.27,1.48,1.48,0,0,0-.73.94A6.45,6.45,0,0,0,20,30.74a6.36,6.36,0,0,0,.26,2.06,1.67,1.67,0,0,0,.85,1,3.75,3.75,0,0,0,1.55.27c.46,0,1,0,1.54-.06s1.09-.1,1.56-.16L25.92,35a5,5,0,0,1-1,.29q-.61.12-1.26.18c-.44,0-.83.05-1.19.05A5.67,5.67,0,0,1,19.94,35a2.82,2.82,0,0,1-1.36-1.48,6.9,6.9,0,0,1-.44-2.68,7,7,0,0,1,.44-2.73,2.6,2.6,0,0,1,1.35-1.43A5.64,5.64,0,0,1,22.28,26.27Z"/><path d="M31.27,26.27A6.66,6.66,0,0,1,33,26.5a5.3,5.3,0,0,1,1.61.73l-.11,1c-.53-.17-1-.3-1.41-.4a5.83,5.83,0,0,0-1.35-.14,2.32,2.32,0,0,0-1.16.25,1.55,1.55,0,0,0-.65.93,7.5,7.5,0,0,0-.2,1.95,7,7,0,0,0,.2,1.93,1.6,1.6,0,0,0,.63,1,2,2,0,0,0,1.09.27,3.24,3.24,0,0,0,.92-.13,3.4,3.4,0,0,0,.87-.41l1.06-.72.14,1.11A6.2,6.2,0,0,1,33,35a4.26,4.26,0,0,1-2,.48,2.55,2.55,0,0,1-2.37-1.18,6.73,6.73,0,0,1-.72-3.46,8,8,0,0,1,.37-2.73,2.54,2.54,0,0,1,1.1-1.42A3.71,3.71,0,0,1,31.27,26.27ZM36,22.67v12.6H34.65l-.2-1.54-.18-.15v-6l.11-.27a8.67,8.67,0,0,1-.09-1c0-.33,0-.67,0-1V22.67Z"/><path d="M40.05,22.73a.46.46,0,0,1,.52.52v1a.46.46,0,0,1-.52.52h-.81a.46.46,0,0,1-.52-.52v-1a.46.46,0,0,1,.52-.52Zm.45,3.76v8.78H38.79V26.49Z"/><path d="M45,26.49v6.08a1.65,1.65,0,0,0,.3,1.12,1.37,1.37,0,0,0,1,.32,3.17,3.17,0,0,0,1.39-.32,16.24,16.24,0,0,0,1.69-.95l.19,1.13a8.39,8.39,0,0,1-2,1.22,4.82,4.82,0,0,1-1.95.42,2.13,2.13,0,0,1-2.41-2.41V26.49Zm6,0v8.78h-1.4l-.16-1.67-.19-.27V26.49Z"/><path d="M55,26.49l.12,1.69.18.25v6.84H53.6V26.49Zm3.65-.22a2.3,2.3,0,0,1,1.73.61A2.54,2.54,0,0,1,61,28.69v6.58H59.34V29.19A1.59,1.59,0,0,0,59,28.06a1.29,1.29,0,0,0-1-.33,2.58,2.58,0,0,0-.83.14,4.73,4.73,0,0,0-.89.43c-.33.2-.73.47-1.2.82L55,28a7.09,7.09,0,0,1,1.81-1.26A4.23,4.23,0,0,1,58.68,26.27Zm5.71,0a2.35,2.35,0,0,1,1.75.62,2.44,2.44,0,0,1,.6,1.8v6.58H65V29.19a1.71,1.71,0,0,0-.3-1.11,1.26,1.26,0,0,0-1-.35,2.34,2.34,0,0,0-.83.15,4.5,4.5,0,0,0-.88.44c-.32.19-.71.46-1.17.8L60.75,28a7.13,7.13,0,0,1,1.82-1.26A4.18,4.18,0,0,1,64.39,26.27Z"/><path d="M81.34,22.62c.61,0,1.26.05,1.94.11a11.88,11.88,0,0,1,2,.34l-.14,1.53-1.79-.05-2,0c-.39,0-.71,0-1,0a1.85,1.85,0,0,0-.66.18.89.89,0,0,0-.37.44,2.29,2.29,0,0,0-.12.82,1.61,1.61,0,0,0,.34,1.16,2.46,2.46,0,0,0,1.08.54l2.45.72a3.54,3.54,0,0,1,2,1.3A4.14,4.14,0,0,1,85.72,32a5,5,0,0,1-.26,1.74,2.25,2.25,0,0,1-.77,1.07,3.45,3.45,0,0,1-1.37.54,11.68,11.68,0,0,1-2,.16c-.41,0-1,0-1.69-.07a18.36,18.36,0,0,1-2.43-.36l.14-1.62,1.78.06,1.24,0h1a6.1,6.1,0,0,0,1.29-.11,1,1,0,0,0,.66-.45,2.17,2.17,0,0,0,.19-1,2.22,2.22,0,0,0-.14-.87,1,1,0,0,0-.44-.5,3.33,3.33,0,0,0-.79-.31l-2.54-.77a3.48,3.48,0,0,1-2-1.28A4,4,0,0,1,77,26a5.24,5.24,0,0,1,.25-1.73,2.06,2.06,0,0,1,.78-1,3.41,3.41,0,0,1,1.34-.49A13.7,13.7,0,0,1,81.34,22.62Z"/><path d="M91.66,26.22a4.94,4.94,0,0,1,3.07.75,2.69,2.69,0,0,1,1,2.2A2.53,2.53,0,0,1,95.12,31a2.59,2.59,0,0,1-1.94.62h-5V30.27h4.44c.41,0,.67-.11.78-.32a1.63,1.63,0,0,0,.18-.8,1.23,1.23,0,0,0-.43-1,2.47,2.47,0,0,0-1.37-.29,3.1,3.1,0,0,0-1.32.23,1.36,1.36,0,0,0-.66.85,6.56,6.56,0,0,0-.19,1.76,5.78,5.78,0,0,0,.24,1.89,1.45,1.45,0,0,0,.77.91,3.58,3.58,0,0,0,1.44.25c.45,0,1,0,1.54-.06s1.15-.08,1.68-.14l.22,1.38a5.85,5.85,0,0,1-1.11.33c-.43.08-.86.14-1.31.19s-.87.06-1.27.06a5.94,5.94,0,0,1-2.6-.48,2.85,2.85,0,0,1-1.42-1.5,6.66,6.66,0,0,1-.44-2.65,7,7,0,0,1,.44-2.76,2.69,2.69,0,0,1,1.4-1.45A6.13,6.13,0,0,1,91.66,26.22Z"/><path d="M99.4,26.44l.21,1.72.22.26v6.85H97.65V26.44Zm3.63-.22a2.35,2.35,0,0,1,1.76.61,2.52,2.52,0,0,1,.63,1.82v6.62h-2.1v-6a1.38,1.38,0,0,0-.29-1,1.22,1.22,0,0,0-.86-.27,2.55,2.55,0,0,0-.72.1,4.46,4.46,0,0,0-.79.36q-.43.26-1.08.69l-.13-1.32a7.44,7.44,0,0,1,1.76-1.26A4.25,4.25,0,0,1,103,26.22Zm5.64,0a2.17,2.17,0,0,1,2.41,2.43v6.62h-2.16v-6a1.54,1.54,0,0,0-.27-1,1.12,1.12,0,0,0-.89-.29,2.17,2.17,0,0,0-.72.11,4.2,4.2,0,0,0-.79.37c-.29.17-.63.39-1,.67l-.13-1.32a7.72,7.72,0,0,1,1.78-1.26A4.17,4.17,0,0,1,108.67,26.22Z"/><path d="M115.11,22.6a.58.58,0,0,1,.65.65v1a.58.58,0,0,1-.65.65h-1a.57.57,0,0,1-.65-.65v-1a.57.57,0,0,1,.65-.65Zm.59,3.84v8.83h-2.16V26.44Z"/><path d="M120.36,22.67l0,3.06c0,.39,0,.76,0,1.11a5.29,5.29,0,0,1-.19,1l.21.25v6.8l-2.17-.11V22.67Zm3.08,3.55a2.85,2.85,0,0,1,2.47,1.06,6.21,6.21,0,0,1,.77,3.53,8.83,8.83,0,0,1-.19,1.93,3.83,3.83,0,0,1-.64,1.48,2.94,2.94,0,0,1-1.27,1,5.77,5.77,0,0,1-2.07.32c-.3,0-.65,0-1,0s-.77-.06-1.17-.12-.78-.13-1.14-.21a5.42,5.42,0,0,1-1-.3l1.74-1.33a7.37,7.37,0,0,0,.84.21,8.81,8.81,0,0,0,.88.11l.82,0a2.18,2.18,0,0,0,1.14-.28,1.54,1.54,0,0,0,.62-.93,6.23,6.23,0,0,0,.2-1.81,7.54,7.54,0,0,0-.15-1.7,1.33,1.33,0,0,0-.55-.87A2.08,2.08,0,0,0,122.6,28a2.49,2.49,0,0,0-1.2.31,11.66,11.66,0,0,0-1.27.83L120,28a6.8,6.8,0,0,1,1-.92,4.33,4.33,0,0,1,1.17-.6A3.9,3.9,0,0,1,123.44,26.22Z"/><path d="M132.73,26.22a6.16,6.16,0,0,1,2.58.45,2.66,2.66,0,0,1,1.39,1.48,7.27,7.27,0,0,1,.42,2.71,7.23,7.23,0,0,1-.42,2.71,2.73,2.73,0,0,1-1.39,1.48,7.38,7.38,0,0,1-5.13,0,2.8,2.8,0,0,1-1.39-1.48,7,7,0,0,1-.43-2.71,7.05,7.05,0,0,1,.43-2.71,2.73,2.73,0,0,1,1.39-1.48A6.1,6.1,0,0,1,132.73,26.22Zm0,1.66a2.47,2.47,0,0,0-1.25.26,1.43,1.43,0,0,0-.66.91,6.5,6.5,0,0,0-.2,1.81,6.58,6.58,0,0,0,.2,1.82,1.44,1.44,0,0,0,.66.9,2.59,2.59,0,0,0,1.25.25,2.7,2.7,0,0,0,1.28-.25,1.44,1.44,0,0,0,.66-.9,7.14,7.14,0,0,0,.18-1.82,7.05,7.05,0,0,0-.18-1.81,1.43,1.43,0,0,0-.66-.91A2.57,2.57,0,0,0,132.73,27.88Z"/><path d="M141.37,22.67l0,9.94a1,1,0,0,0,.29.77,1.21,1.21,0,0,0,.83.26h.77l.26,1.53a3.12,3.12,0,0,1-.55.16,5.93,5.93,0,0,1-.72.1l-.64,0a2.46,2.46,0,0,1-1.75-.59,2.22,2.22,0,0,1-.65-1.71V22.67Z"/><path d="M147.83,26.22a6.63,6.63,0,0,1,1.77.24,4.62,4.62,0,0,1,1.56.8l-.14,1.1L149.76,28a4.8,4.8,0,0,0-1.24-.14,2.06,2.06,0,0,0-1,.22,1.37,1.37,0,0,0-.57.86,6.58,6.58,0,0,0-.19,1.83,6.66,6.66,0,0,0,.18,1.77,1.46,1.46,0,0,0,.56.87,1.85,1.85,0,0,0,1,.24,2.86,2.86,0,0,0,.87-.12,3.12,3.12,0,0,0,.77-.36c.27-.17.57-.38.92-.62l.18,1.23a5.59,5.59,0,0,1-1.5,1.2,4.3,4.3,0,0,1-2.06.49,2.6,2.6,0,0,1-2.42-1.2,6.82,6.82,0,0,1-.72-3.48,8.4,8.4,0,0,1,.37-2.75A2.6,2.6,0,0,1,146,26.64,3.76,3.76,0,0,1,147.83,26.22Zm5.11-3.55v12.6h-1.71L151,33.69l-.23-.18v-5.9l.1-.26c0-.34-.07-.7-.09-1.05s0-.72,0-1.09V22.67Z"/><path d="M164.19,22.71a9.49,9.49,0,0,1,2.59.28,2.27,2.27,0,0,1,1.39,1,3.78,3.78,0,0,1,.43,2,3.36,3.36,0,0,1-.51,2,2.22,2.22,0,0,1-1.68.81v.1a2.56,2.56,0,0,1,2,1,4,4,0,0,1,.58,2.33,3.77,3.77,0,0,1-.44,2,2.36,2.36,0,0,1-1.37,1,8.83,8.83,0,0,1-2.42.28h-2.1c-.59,0-1.14,0-1.64,0l-1.55-.09.27-1.9,1.66,0,2.87,0a4.11,4.11,0,0,0,1.19-.14,1,1,0,0,0,.61-.53,2.93,2.93,0,0,0,.17-1.11,3,3,0,0,0-.18-1.18,1.06,1.06,0,0,0-.62-.57,3.83,3.83,0,0,0-1.22-.18h-4.5V28h4.46a3.94,3.94,0,0,0,1.06-.15.88.88,0,0,0,.55-.48,2.69,2.69,0,0,0,.16-1,2.44,2.44,0,0,0-.17-1,1,1,0,0,0-.59-.48,4.29,4.29,0,0,0-1.15-.12h-3.17c-.41,0-.78,0-1.13,0l-.27-1.91c.48,0,.94-.08,1.39-.1s.94,0,1.47,0Zm-2,.14V35.27h-2.7V22.85Z"/><path d="M175.07,26.15a6.49,6.49,0,0,1,2.68.46,2.8,2.8,0,0,1,1.45,1.48,7.2,7.2,0,0,1,.44,2.76,7,7,0,0,1-.44,2.71A2.76,2.76,0,0,1,177.75,35a8.21,8.21,0,0,1-5.36,0,2.78,2.78,0,0,1-1.46-1.48,6.83,6.83,0,0,1-.45-2.71,7,7,0,0,1,.45-2.76,2.82,2.82,0,0,1,1.46-1.48A6.52,6.52,0,0,1,175.07,26.15Zm0,1.94a2.06,2.06,0,0,0-1.08.24,1.27,1.27,0,0,0-.56.82,6.76,6.76,0,0,0-.16,1.7,6.6,6.6,0,0,0,.16,1.67,1.25,1.25,0,0,0,.56.82,2.17,2.17,0,0,0,1.08.22,2.23,2.23,0,0,0,1.08-.22,1.24,1.24,0,0,0,.55-.82,6.52,6.52,0,0,0,.17-1.67,6.68,6.68,0,0,0-.17-1.7,1.26,1.26,0,0,0-.55-.82A2.11,2.11,0,0,0,175.07,28.09Z"/><path d="M184.14,22.67l0,9.76a.8.8,0,0,0,.27.67,1.2,1.2,0,0,0,.79.23h.72l.31,1.8a3.18,3.18,0,0,1-.61.19,7.54,7.54,0,0,1-.81.12,6.9,6.9,0,0,1-.71.05,2.72,2.72,0,0,1-1.9-.63,2.25,2.25,0,0,1-.71-1.76V22.67Z"/><path d="M190.4,26.15a6.06,6.06,0,0,1,1.81.27,4,4,0,0,1,1.54.88l-.18,1.22-1.1-.32a3.84,3.84,0,0,0-1.13-.14,1.82,1.82,0,0,0-.9.19,1.25,1.25,0,0,0-.51.78,7.12,7.12,0,0,0-.16,1.71,6.52,6.52,0,0,0,.15,1.61,1.25,1.25,0,0,0,.49.75,1.59,1.59,0,0,0,.86.21,2.8,2.8,0,0,0,.81-.1,3.08,3.08,0,0,0,.68-.3c.23-.14.49-.31.77-.52l.2,1.32a4.77,4.77,0,0,1-1.4,1.27,4.15,4.15,0,0,1-2.13.51,2.63,2.63,0,0,1-2.44-1.22,7,7,0,0,1-.72-3.51,8.27,8.27,0,0,1,.37-2.79,2.53,2.53,0,0,1,1.12-1.41A3.92,3.92,0,0,1,190.4,26.15Zm5.53-3.48v12.6h-2.11l-.27-1.63-.29-.2V27.61l.11-.24c0-.37-.06-.74-.08-1.12s0-.77,0-1.16V22.67Z"/><path d="M10,.22V2.05H0V.22ZM6.1.22V12.64H3.85V.22Z"/><path d="M11.72,3.8l2,6.08c.06.21.11.41.16.62s.09.42.13.62h.45l-.69,1.52h-.57a.72.72,0,0,1-.45-.15.73.73,0,0,1-.27-.39l-3-8.3Zm7.13,0-3.32,9.11A8.73,8.73,0,0,1,15,14.16a4.53,4.53,0,0,1-.89,1.12,3.89,3.89,0,0,1-1.28.79,3.73,3.73,0,0,1-1.71.22L10.89,15a4.39,4.39,0,0,0,1.68-.82,3.55,3.55,0,0,0,.95-1.34L14,11.68a7.87,7.87,0,0,0,.32-.91c.1-.34.19-.64.26-.89L16.51,3.8Z"/><path d="M22.07,3.8l.21,1.71.2.25v5.71l-.09.21c0,.35.06.7.07,1.06s0,.71,0,1.08v2.33H20.3V3.8Zm3.72-.22a2.51,2.51,0,0,1,2.37,1.21,7,7,0,0,1,.71,3.49A8.13,8.13,0,0,1,28.5,11a2.57,2.57,0,0,1-1.1,1.42,3.79,3.79,0,0,1-1.88.42,6.08,6.08,0,0,1-1.75-.26,4.86,4.86,0,0,1-1.58-.82l.15-1.08,1.26.34a4.69,4.69,0,0,0,1.22.15A2.11,2.11,0,0,0,25.88,11a1.38,1.38,0,0,0,.56-.85,7,7,0,0,0,.18-1.82,7.81,7.81,0,0,0-.16-1.82,1.58,1.58,0,0,0-.53-.91,1.67,1.67,0,0,0-1-.26,2.74,2.74,0,0,0-1.23.28,9.89,9.89,0,0,0-1.33.82l-.25-1.15a4.23,4.23,0,0,1,1-.87,5.08,5.08,0,0,1,1.27-.59A4.3,4.3,0,0,1,25.79,3.58Z"/><path d="M35,3.58A6.16,6.16,0,0,1,37.54,4a2.68,2.68,0,0,1,1.38,1.48,7.07,7.07,0,0,1,.43,2.72,7,7,0,0,1-.43,2.7,2.71,2.71,0,0,1-1.38,1.48,6,6,0,0,1-2.58.46,5.9,5.9,0,0,1-2.55-.46A2.78,2.78,0,0,1,31,10.93a7.15,7.15,0,0,1-.43-2.7A7.27,7.27,0,0,1,31,5.51,2.75,2.75,0,0,1,32.41,4,6.07,6.07,0,0,1,35,3.58Zm0,1.66a2.56,2.56,0,0,0-1.25.26,1.46,1.46,0,0,0-.66.91,6.58,6.58,0,0,0-.2,1.82,6.5,6.5,0,0,0,.2,1.81,1.39,1.39,0,0,0,.66.9A2.56,2.56,0,0,0,35,11.2a2.64,2.64,0,0,0,1.27-.26,1.36,1.36,0,0,0,.66-.9,6.56,6.56,0,0,0,.19-1.81,6.64,6.64,0,0,0-.19-1.82,1.43,1.43,0,0,0-.66-.91A2.64,2.64,0,0,0,35,5.24Z"/><path d="M42.55,8.64l1.12.16a1.15,1.15,0,0,0-.37.55.81.81,0,0,0,.05.63.84.84,0,0,0,.68.37l3.27.43a2.87,2.87,0,0,1,1.88.79,2.64,2.64,0,0,1,.54,1.79,2.92,2.92,0,0,1-.44,1.71,2.31,2.31,0,0,1-1.41.85,11.51,11.51,0,0,1-2.64.24A14.49,14.49,0,0,1,43.06,16a3.73,3.73,0,0,1-1.38-.45,1.77,1.77,0,0,1-.73-.81,3.15,3.15,0,0,1-.22-1.23,2.38,2.38,0,0,1,.19-1,2.05,2.05,0,0,1,.62-.71,4.89,4.89,0,0,1,1.17-.58l1.23-.52.84.3-.79.56a7.64,7.64,0,0,0-.67.55,1.6,1.6,0,0,0-.38.48,1.44,1.44,0,0,0-.12.63A1.24,1.24,0,0,0,43,14a1.18,1.18,0,0,0,.73.37,8.87,8.87,0,0,0,1.46.1,9,9,0,0,0,1.47-.1,1.22,1.22,0,0,0,.73-.36,1.16,1.16,0,0,0,.21-.75,1,1,0,0,0-.13-.58.78.78,0,0,0-.45-.3,5,5,0,0,0-.9-.18l-2.95-.36a1.92,1.92,0,0,1-1-.37,1.57,1.57,0,0,1-.51-.72,1.62,1.62,0,0,1-.08-.84,1.86,1.86,0,0,1,.3-.79A1.47,1.47,0,0,1,42.55,8.64Zm2.59-5.06a7.9,7.9,0,0,1,2.37.28,2.19,2.19,0,0,1,1.25.9,3.12,3.12,0,0,1,.38,1.63A3,3,0,0,1,48.76,8a2.15,2.15,0,0,1-1.26.91,8,8,0,0,1-2.37.29,7.86,7.86,0,0,1-2.37-.29A2.25,2.25,0,0,1,41.5,8a2.94,2.94,0,0,1-.39-1.6,3,3,0,0,1,.39-1.63,2.24,2.24,0,0,1,1.27-.9A8,8,0,0,1,45.14,3.58Zm0,1.42a2.91,2.91,0,0,0-1.57.31,1.22,1.22,0,0,0-.43,1.08,1.21,1.21,0,0,0,.43,1.05,2.81,2.81,0,0,0,1.57.32,2.73,2.73,0,0,0,1.55-.32,1.23,1.23,0,0,0,.43-1.05,1.24,1.24,0,0,0-.43-1.08A2.83,2.83,0,0,0,45.13,5Zm5-1.2-.13,1-2.3.25L47.09,3.8Z"/><path d="M53.37,3.8l.29,1.73.2.25v6.86H51.68V3.8Zm4.32-.22-.22,2h-.63a4.79,4.79,0,0,0-1.42.23c-.48.16-1.08.39-1.8.7l-.14-1.27A8.29,8.29,0,0,1,55.39,4a4.55,4.55,0,0,1,1.87-.44Z"/><path d="M65.92,7.2l0,1.35H61.85a1,1,0,0,0-.78.29,1.11,1.11,0,0,0-.23.74v.48a1.07,1.07,0,0,0,.29.81,1.27,1.27,0,0,0,.9.27A3.52,3.52,0,0,0,63.11,11a4.86,4.86,0,0,0,1.18-.56,5.67,5.67,0,0,0,1-.9v1.13a6.7,6.7,0,0,1-.52.64A6.29,6.29,0,0,1,64,12a4.48,4.48,0,0,1-1.13.59,4,4,0,0,1-1.42.24A3.6,3.6,0,0,1,60,12.54a2.24,2.24,0,0,1-1-.83,2.44,2.44,0,0,1-.36-1.36V9.41a2,2,0,0,1,.69-1.62,2.88,2.88,0,0,1,1.9-.59ZM63.58,3.58a5.08,5.08,0,0,1,1.8.28,2,2,0,0,1,1.1.95,3.73,3.73,0,0,1,.37,1.83v6H65.12l-.3-1.91-.16-.25V6.62a1.35,1.35,0,0,0-.33-1,1.79,1.79,0,0,0-1.24-.32c-.46,0-1,0-1.72.06s-1.38.08-2.08.14L59.09,4c.42-.09.9-.16,1.43-.22s1.06-.11,1.6-.14S63.14,3.58,63.58,3.58Z"/><path d="M71,3.8l.22,1.71.2.25v5.71l-.09.21c0,.35.06.7.07,1.06s0,.71,0,1.08v2.33H69.23V3.8Zm3.73-.22a2.51,2.51,0,0,1,2.36,1.21,6.89,6.89,0,0,1,.71,3.49A8.43,8.43,0,0,1,77.43,11a2.63,2.63,0,0,1-1.11,1.42,3.75,3.75,0,0,1-1.87.42,6.15,6.15,0,0,1-1.76-.26,4.82,4.82,0,0,1-1.57-.82l.14-1.08,1.26.34a4.71,4.71,0,0,0,1.23.15,2.1,2.1,0,0,0,1-.23,1.35,1.35,0,0,0,.57-.85,7.11,7.11,0,0,0,.17-1.82,7.81,7.81,0,0,0-.16-1.82,1.48,1.48,0,0,0-.53-.91,1.63,1.63,0,0,0-1-.26,2.7,2.7,0,0,0-1.22.28,9.92,9.92,0,0,0-1.34.82l-.25-1.15a4.44,4.44,0,0,1,1-.87,5.08,5.08,0,0,1,1.27-.59A4.32,4.32,0,0,1,74.72,3.58Z"/><path d="M82.06,0l0,3.24A12.32,12.32,0,0,1,82,4.53a7,7,0,0,1-.18,1l.22.25v6.86H79.88V0ZM85.7,3.58A2.16,2.16,0,0,1,88.16,6v6.63H86v-6a1.46,1.46,0,0,0-.25-1,1.07,1.07,0,0,0-.83-.27,3.45,3.45,0,0,0-1.37.29,14.28,14.28,0,0,0-1.69.86l-.16-1.26a8.83,8.83,0,0,1,2-1.28A5,5,0,0,1,85.7,3.58Z"/><path d="M91.87,3.8l2,6.08c.06.21.12.41.17.62l.12.62h.45l-.68,1.52h-.58a.72.72,0,0,1-.45-.15.73.73,0,0,1-.27-.39l-3-8.3ZM99,3.8l-3.31,9.11a8.81,8.81,0,0,1-.59,1.25,4.53,4.53,0,0,1-.89,1.12,3.89,3.89,0,0,1-1.28.79,3.73,3.73,0,0,1-1.71.22L91,15a4.52,4.52,0,0,0,1.69-.82,3.64,3.64,0,0,0,.94-1.34l.49-1.15c.1-.26.21-.56.31-.91s.19-.64.26-.89L96.66,3.8Z"/><path d="M101.68,4.61a.88.88,0,0,1,.62.17.8.8,0,0,1,.17.6v.9a.84.84,0,0,1-.17.62.84.84,0,0,1-.62.17h-.59a.87.87,0,0,1-.62-.17.83.83,0,0,1-.18-.62v-.9a.8.8,0,0,1,.18-.6.92.92,0,0,1,.62-.17Zm0,5.56a.88.88,0,0,1,.62.17.83.83,0,0,1,.17.6v.9a.84.84,0,0,1-.17.62.83.83,0,0,1-.62.18h-.59a.87.87,0,0,1-.62-.18.83.83,0,0,1-.18-.62v-.9a.83.83,0,0,1,.18-.6.92.92,0,0,1,.62-.17Z"/><path d="M107.53.18h1.92c.65,0,1.3,0,1.93,0s1.24.06,1.8.1L113.07,2h-4.86a1,1,0,0,0-.74.25,1.12,1.12,0,0,0-.25.79V9.81a1.12,1.12,0,0,0,.25.79,1,1,0,0,0,.74.25h4.86l.11,1.68c-.56.05-1.16.08-1.8.1s-1.28,0-1.93,0h-1.92a2.58,2.58,0,0,1-1.84-.64,2.28,2.28,0,0,1-.72-1.72V2.54a2.29,2.29,0,0,1,.72-1.72A2.58,2.58,0,0,1,107.53.18ZM105.3,5.31h7.09V7H105.3Z"/><path d="M116.69,3.8l2.54,4.3-2.72,4.54h-2.28l2.84-4.54-2.63-4.3Zm3.44,3.53V8.78h-2.41V7.33Zm3.24-3.53-2.63,4.3,2.85,4.54h-2.25L118.6,8.1l2.52-4.3Z"/><path d="M128.88,3.58a6.16,6.16,0,0,1,2.58.45,2.69,2.69,0,0,1,1.39,1.48,7.29,7.29,0,0,1,.42,2.72,7.18,7.18,0,0,1-.42,2.7,2.73,2.73,0,0,1-1.39,1.48,6,6,0,0,1-2.58.46,5.9,5.9,0,0,1-2.55-.46,2.73,2.73,0,0,1-1.39-1.48,6.94,6.94,0,0,1-.44-2.7,7.05,7.05,0,0,1,.44-2.72A2.69,2.69,0,0,1,126.33,4,6.07,6.07,0,0,1,128.88,3.58Zm0,1.66a2.56,2.56,0,0,0-1.25.26,1.46,1.46,0,0,0-.66.91,6.58,6.58,0,0,0-.2,1.82A6.5,6.5,0,0,0,127,10a1.39,1.39,0,0,0,.66.9,2.56,2.56,0,0,0,1.25.26,2.71,2.71,0,0,0,1.28-.26,1.34,1.34,0,0,0,.65-.9A6.56,6.56,0,0,0,131,8.23a6.64,6.64,0,0,0-.19-1.82,1.42,1.42,0,0,0-.65-.91A2.71,2.71,0,0,0,128.88,5.24Z"/><path d="M143.06,0a8.91,8.91,0,0,1,2.14.22,2.44,2.44,0,0,1,1.4.82,2.73,2.73,0,0,1,.49,1.77,5,5,0,0,1-.18,1.37,4.68,4.68,0,0,1-.64,1.32A13.68,13.68,0,0,1,145,7.07l-3.38,3.64a7,7,0,0,1,.94-.09l1,0h4v2h-8.57V11.38a2,2,0,0,1,.07-.52,1.17,1.17,0,0,1,.26-.42l3.29-3.64a13.43,13.43,0,0,0,1.71-2.13A3.15,3.15,0,0,0,144.81,3a1.05,1.05,0,0,0-.25-.72,1.34,1.34,0,0,0-.67-.29,6.39,6.39,0,0,0-1.06-.07h-1.14L140.55,2c-.4,0-.87.07-1.41.13L139,.45c.58-.13,1.09-.23,1.55-.29s.88-.1,1.28-.12S142.65,0,143.06,0Z"/></g></g></svg>