<svg xmlns="http://www.w3.org/2000/svg" viewBox="0 0 480.19 535.12"><defs><style>.cls-1{fill:none;stroke:#211915;stroke-miterlimit:10;}.cls-2{fill:#69e4b9;}.cls-3{fill:#fff;}</style></defs><title>c_logo</title><g id="Capa_2" data-name="Capa 2"><g id="Capa_1-2" data-name="Capa 1"><path class="cls-1" d="M429.57,123.31a216.36,216.36,0,0,0-162-72.69c-119.81,0-216.94,97.13-216.94,216.94S147.75,484.5,267.56,484.5a216.4,216.4,0,0,0,162-72.69"/><circle class="cls-2" cx="265.17" cy="267.56" r="68.45"/><path class="cls-3" d="M267.56,535.12C120,535.12,0,415.09,0,267.56S120,0,267.56,0a267.87,267.87,0,0,1,199.8,89.63A50.62,50.62,0,1,1,391.78,157a166.58,166.58,0,0,0-124.22-55.74c-91.71,0-166.32,74.61-166.32,166.32s74.61,166.32,166.32,166.32a166.59,166.59,0,0,0,124.22-55.74,50.62,50.62,0,1,1,75.58,67.35A267.88,267.88,0,0,1,267.56,535.12Z"/></g></g></svg>