<svg xmlns="http://www.w3.org/2000/svg" viewBox="0 0 2292.48 773.21"><defs><style>.cls-1{fill:#4d5867;}.cls-2{fill:#fff;}.cls-3{fill:none;stroke:#211915;stroke-miterlimit:10;}.cls-4{fill:#69e4b9;}</style></defs><title>Logo_1</title><g id="Capa_2" data-name="Capa 2"><g id="Capa_1-2" data-name="Capa 1"><rect class="cls-1" width="2292.48" height="773.21"/><path class="cls-2" d="M691.87,286.57q34,0,54.25,9.46t29.12,31q8.87,21.56,8.88,57.1T775.24,441q-8.9,21.38-29.12,31t-54.25,9.64q-33.29,0-53.51-9.64t-29.3-31Q600,419.69,600,384.13t9.07-57.1q9.08-21.55,29.3-31T691.87,286.57Zm0,34.79q-16.65,0-26.29,5.49t-13.79,19.09q-4.17,13.62-4.16,38.19t4.16,38.19q4.14,13.6,13.79,18.9t26.29,5.29q17,0,26.84-5.29t13.8-18.9q4-13.62,4-38.19t-4-38.19q-4-13.62-13.8-19.09T691.87,321.36Z"/><path class="cls-2" d="M862.76,291.12l6,36.29,4.16,5.3V476.76H827.22V291.12Zm90.75-4.55L949,328.92H935.73a96.09,96.09,0,0,0-29.86,4.92q-15.14,4.92-37.82,14.75l-3-26.85a172.89,172.89,0,0,1,40.08-25.9q20.42-9.25,39.32-9.27Z"/><path class="cls-2" d="M1063.53,286.57q45,0,64.66,15.7t20,46.32q.38,25.34-11.91,38.37T1095.67,400H989.8V371.65h93.39q12.86,0,16.46-6.8c2.39-4.55,3.59-10.08,3.59-16.64q-.39-15.51-8.89-21.55t-28.92-6.05q-17.79,0-27.61,4.91T1024,343.29q-4,12.85-4,37.06,0,25.71,4.92,39.7t16.25,19.09q11.35,5.1,30.26,5.11,14,0,32.32-1.14t35.35-3l4.54,29.12a129.7,129.7,0,0,1-23.44,6.81,269.1,269.1,0,0,1-27.42,4q-14.17,1.32-26.65,1.32-34,0-54.64-10t-29.87-31.57q-9.27-21.56-9.26-55.58,0-36.67,9.26-58t29.5-30.44Q1031.39,286.58,1063.53,286.57Z"/><path class="cls-2" d="M1226.87,291.12l4.54,36.29,3.78,5.3V476.76h-45.75V291.12Zm84.7-4.55q51.79,0,51.8,51.05V476.76h-45.76V351.61q0-15.12-5.29-20.8t-17.77-5.67a73.51,73.51,0,0,0-28.74,6.24,363.74,363.74,0,0,0-35.54,18l-1.89-27.6q20.79-17,41.79-26.09T1311.57,286.57Z"/><path class="cls-2" d="M1496.45,286.57q45,0,64.67,15.7t20,46.32q.38,25.34-11.91,38.37T1528.59,400H1422.73V371.65h93.39q12.86,0,16.45-6.8c2.39-4.55,3.59-10.08,3.59-16.64q-.39-15.51-8.89-21.55t-28.92-6.05q-17.77,0-27.61,4.91T1457,343.29q-4,12.85-4,37.06,0,25.71,4.92,39.7t16.26,19.09q11.34,5.1,30.25,5.11,14,0,32.33-1.14t35.35-3l4.53,29.12a129.47,129.47,0,0,1-23.44,6.81,268.9,268.9,0,0,1-27.41,4q-14.19,1.32-26.66,1.32-34,0-54.63-10t-29.88-31.57q-9.25-21.56-9.26-55.58,0-36.67,9.26-58t29.5-30.44Q1464.31,286.58,1496.45,286.57Z"/><path class="cls-2" d="M1657.9,291.12l6,36.29,4.16,5.3V476.76h-45.75V291.12Zm90.75-4.55-4.54,42.35h-13.23a96.15,96.15,0,0,0-29.87,4.92q-15.13,4.92-37.81,14.75l-3-26.85a173.31,173.31,0,0,1,40.08-25.9q20.41-9.25,39.32-9.27Z"/><path class="cls-2" d="M1802.72,392.83l23.44,3.4a22.64,22.64,0,0,0-7.75,11.53,17.17,17.17,0,0,0,1.13,13.23q3.21,6.24,14.18,7.75l68.82,9.08q28,3.39,39.32,16.45t11.34,37.62q0,23.05-9.07,35.92t-29.68,18q-20.62,5.1-55.4,5.1-27.6,0-45.75-2.84t-28.92-9.45q-10.77-6.62-15.32-17t-4.53-25.9q0-12.1,4-20.42t13-14.93q9.07-6.61,24.58-12.29l25.71-11,17.77,6.43L1833,455.21a165.6,165.6,0,0,0-14.17,11.53,35.27,35.27,0,0,0-8,10.21c-1.63,3.4-2.45,7.76-2.45,13.05q0,10.58,4.35,16.25t15.31,7.76q11,2.07,30.62,2.07,20,0,31-2.07t15.31-7.57q4.35-5.47,4.35-15.69,0-8.31-2.65-12.28t-9.45-6.24a102.18,102.18,0,0,0-18.9-3.79l-62-7.56q-13.24-1.5-21-7.75A32.62,32.62,0,0,1,1784.57,438a37.34,37.34,0,0,1-1.71-17.77,39.67,39.67,0,0,1,6.43-16.45A29.22,29.22,0,0,1,1802.72,392.83Zm54.44-106.26q31.38,0,49.73,5.87t26.27,18.9q7.93,13.05,7.94,34.22,0,20.42-7.94,33.46t-26.47,19.1q-18.53,6-49.9,6.05t-49.73-6.05q-18.33-6-26.46-18.91t-8.13-33.65q0-21.17,8.13-34.22t26.65-18.9Q1825.78,286.57,1857.16,286.57Zm-.37,29.88q-23.82,0-32.9,6.43t-9.07,22.68q0,15.51,9.07,22.12t32.9,6.62q23.82,0,32.7-6.62t8.89-22.12q0-16.24-8.89-22.68T1856.79,316.45Zm105.86-25.33L1960,312.29l-48.4,5.29L1898,291.12Z"/><path class="cls-2" d="M2022,291.12l41.21,127.79q1.89,6.43,3.41,13t2.64,13h9.46l-14.37,31.76h-12.11a15.64,15.64,0,0,1-9.45-3,15,15,0,0,1-5.66-8.32l-63.91-174.3Zm149.73,0-69.57,191.32a182.75,182.75,0,0,1-12.29,26.27,98.24,98.24,0,0,1-18.72,23.64A83.27,83.27,0,0,1,2044.33,549q-15.51,6-35.92,4.54l-3.79-27.22q22.7-6.43,35.36-17.4a74.76,74.76,0,0,0,19.85-28L2070,456.73q3.4-8.33,6.61-19.1t5.49-18.72l40.45-127.79Z"/><path class="cls-3" d="M550.3,242.35a216.4,216.4,0,0,0-162-72.69c-119.81,0-216.94,97.13-216.94,216.94s97.13,216.94,216.94,216.94a216.36,216.36,0,0,0,162-72.69"/><circle class="cls-4" cx="385.9" cy="386.6" r="68.45"/><path class="cls-2" d="M388.29,654.16c-147.53,0-267.56-120-267.56-267.56S240.76,119,388.29,119a267.84,267.84,0,0,1,199.8,89.64A50.61,50.61,0,1,1,512.51,276a166.58,166.58,0,0,0-124.22-55.74C296.58,220.28,222,294.89,222,386.6s74.61,166.32,166.32,166.32a166.54,166.54,0,0,0,124.22-55.74,50.62,50.62,0,1,1,75.58,67.35A267.88,267.88,0,0,1,388.29,654.16Z"/></g></g></svg>