<svg xmlns="http://www.w3.org/2000/svg" viewBox="0 0 1707.97 773.21"><defs><style>.cls-1{fill:#4d5867;}.cls-2{fill:#69e4b9;}.cls-3{fill:#fff;}</style></defs><title>c_Logo</title><g id="Capa_2" data-name="Capa 2"><g id="Capa_1-2" data-name="Capa 1"><rect class="cls-1" width="1707.97" height="773.21"/><circle class="cls-2" cx="514.61" cy="386.6" r="68.45"/><path class="cls-3" d="M517,654.16c-147.53,0-267.55-120-267.55-267.56S369.46,119.05,517,119.05A267.89,267.89,0,0,1,716.8,208.68,50.62,50.62,0,0,1,641.21,276,166.54,166.54,0,0,0,517,220.28c-91.7,0-166.31,74.61-166.31,166.32S425.29,552.92,517,552.92a166.53,166.53,0,0,0,124.22-55.74,50.62,50.62,0,0,1,75.59,67.35A267.9,267.9,0,0,1,517,654.16Z"/><circle class="cls-3" cx="1259.06" cy="386.6" r="68.45"/><path class="cls-2" d="M1261.44,654.16c-147.53,0-267.56-120-267.56-267.56S1113.91,119,1261.44,119a267.86,267.86,0,0,1,199.81,89.64A50.62,50.62,0,1,1,1385.66,276a166.56,166.56,0,0,0-124.22-55.74c-91.71,0-166.32,74.61-166.32,166.32s74.61,166.32,166.32,166.32a166.53,166.53,0,0,0,124.22-55.74,50.62,50.62,0,1,1,75.59,67.35A267.92,267.92,0,0,1,1261.44,654.16Z"/></g></g></svg>