<svg xmlns="http://www.w3.org/2000/svg" viewBox="0 0 36.25 46.14"><defs><style>.cls-1{fill:#69e4b9;}.cls-2{fill:#545454;}</style></defs><title>Recurso 14</title><g id="Capa_2" data-name="Capa 2"><g id="Capa_1-2" data-name="Capa 1"><path class="cls-1" d="M32.2,3.15Q28.17,0,18.9,0A27,27,0,0,0,8,1.85,11.76,11.76,0,0,0,1.93,7.93Q0,12.16,0,19.34v0a3.1,3.1,0,0,0,3.12,3.06l21.64.09q6.36,0,9-2.48c1.73-1.66,2.57-4.16,2.52-7.52Q36.24,6.29,32.2,3.15ZM24.94,15.31c-.47.71-1.54,1.07-3.22,1.07H11.53a25.66,25.66,0,0,1,.36-3.6s0-.06,0-.1,0,0,0,0,0-.07,0-.1a8.91,8.91,0,0,1,.22-.89,4.65,4.65,0,0,1,2.37-3.12,11.23,11.23,0,0,1,4.74-.81c2.27,0,3.89.33,4.86,1a4.23,4.23,0,0,1,1.51,3.59A5.47,5.47,0,0,1,24.94,15.31Z"/><path class="cls-1" d="M11.89,12.78a25.66,25.66,0,0,0-.36,3.6H15A3.12,3.12,0,0,1,11.89,12.78Z"/><path class="cls-1" d="M11.92,12.63s0-.07,0-.1S11.93,12.59,11.92,12.63Z"/><path class="cls-2" d="M11.91,12.68s0,.07,0,.1l0-.15S11.91,12.66,11.91,12.68Z"/><path class="cls-2" d="M11.94,12.53a8.91,8.91,0,0,1,.22-.89A8.91,8.91,0,0,0,11.94,12.53Z"/><path class="cls-1" d="M3.74,23.67A3.71,3.71,0,0,0,.06,27.44c0,1.24.08,2.33.17,3.23a20.79,20.79,0,0,0,1.34,6.6A12.85,12.85,0,0,0,4.64,42a12.23,12.23,0,0,0,2.92,2,17.17,17.17,0,0,0,5.68,1.7,33,33,0,0,0,5.73.4,28,28,0,0,0,7.08-.53q.75-.16,1.41-.36A3.71,3.71,0,0,0,30,41h0a3.71,3.71,0,0,0-5-2.71l-.23.09a17.44,17.44,0,0,1-5.43,1.33,8.55,8.55,0,0,1-3.91-.49,5.85,5.85,0,0,1-3.54-3.92c-.38-1.34-.34-2.66.47-5.71l.33-1.18a3.71,3.71,0,0,0-3.57-4.73Z"/></g></g></svg>