<svg xmlns="http://www.w3.org/2000/svg" viewBox="0 0 167.43 25.74"><defs><style>.cls-1{fill:#fff;}.cls-2{fill:none;}.cls-3{fill:#69e4b9;}.cls-4{fill:#545454;}</style></defs><title>Recurso 12</title><g id="Capa_2" data-name="Capa 2"><g id="Capa_1-2" data-name="Capa 1"><path class="cls-1" d="M8.71.29c.6,0,1.26,0,2,.08a17.2,17.2,0,0,1,2.2.28,9.48,9.48,0,0,1,2,.62L14.4,4c-.89,0-1.77-.08-2.65-.11l-2.28,0a7.17,7.17,0,0,0-2.9.48A2.93,2.93,0,0,0,5,6.07a10.29,10.29,0,0,0-.47,3.48A10.27,10.27,0,0,0,5,13a3,3,0,0,0,1.53,1.75,7,7,0,0,0,2.9.5c.36,0,.83,0,1.42,0s1.22-.05,1.91-.1,1.35-.11,2-.18l.43,2.8a13.15,13.15,0,0,1-3.13.83,23.55,23.55,0,0,1-3.42.25,12,12,0,0,1-5.08-.9A5.35,5.35,0,0,1,.85,15,14.34,14.34,0,0,1,0,9.55,14.38,14.38,0,0,1,.86,4.09,5.39,5.39,0,0,1,3.64,1.18,12.16,12.16,0,0,1,8.71.29Z"/><path class="cls-1" d="M26.53.29a12.4,12.4,0,0,1,5.17.9,5.4,5.4,0,0,1,2.77,3,14.54,14.54,0,0,1,.85,5.43A14.44,14.44,0,0,1,34.47,15,5.45,5.45,0,0,1,31.7,18a12.21,12.21,0,0,1-5.17.92A11.94,11.94,0,0,1,21.44,18,5.49,5.49,0,0,1,18.65,15a14,14,0,0,1-.87-5.42,14.1,14.1,0,0,1,.87-5.43,5.44,5.44,0,0,1,2.79-3A12.12,12.12,0,0,1,26.53.29Zm0,3.32a5.05,5.05,0,0,0-2.5.52A3,3,0,0,0,22.72,6a12.71,12.71,0,0,0-.4,3.63,12.83,12.83,0,0,0,.4,3.64A2.9,2.9,0,0,0,24,15a5.3,5.3,0,0,0,2.5.5,5.54,5.54,0,0,0,2.56-.5,2.83,2.83,0,0,0,1.31-1.8,13.75,13.75,0,0,0,.38-3.64A13.61,13.61,0,0,0,30.4,6a2.88,2.88,0,0,0-1.31-1.82A5.28,5.28,0,0,0,26.53,3.61Z"/><path class="cls-1" d="M42.8.73l.58,3.45.4.51V18.4H39.42V.73ZM51.44.29l-.43,4H49.75a9.21,9.21,0,0,0-2.84.46c-1,.32-2.16.78-3.6,1.41L43,3.64a16.36,16.36,0,0,1,3.82-2.46A9,9,0,0,1,50.58.29Z"/><path class="cls-1" d="M77.47.73l.43,3.45.36.51V18.4H73.91V.73ZM85.54.29c3.28,0,4.93,1.62,4.93,4.86V18.4H86.11V6.49a3,3,0,0,0-.5-2A2.24,2.24,0,0,0,83.92,4a6.94,6.94,0,0,0-2.74.59,37.22,37.22,0,0,0-3.39,1.71l-.17-2.63a16.54,16.54,0,0,1,4-2.48A9.84,9.84,0,0,1,85.54.29Z"/><path class="cls-1" d="M103.14.29q4.29,0,6.15,1.5A5.36,5.36,0,0,1,111.2,6.2a5,5,0,0,1-1.13,3.65,5.12,5.12,0,0,1-3.87,1.24H96.12V8.39H105c.82,0,1.34-.21,1.57-.64a3.49,3.49,0,0,0,.34-1.59,2.44,2.44,0,0,0-.85-2,4.93,4.93,0,0,0-2.75-.58,6,6,0,0,0-2.63.47,2.65,2.65,0,0,0-1.31,1.69A12.74,12.74,0,0,0,99,9.22,11.69,11.69,0,0,0,99.47,13,2.9,2.9,0,0,0,101,14.82a7.21,7.21,0,0,0,2.88.49c.89,0,1.92,0,3.08-.11s2.29-.17,3.37-.29l.43,2.77a12.05,12.05,0,0,1-2.23.65c-.84.17-1.71.29-2.61.38s-1.75.12-2.54.12a11.93,11.93,0,0,1-5.2-.95,5.78,5.78,0,0,1-2.85-3,13.63,13.63,0,0,1-.88-5.29,14.3,14.3,0,0,1,.88-5.52,5.39,5.39,0,0,1,2.81-2.9A12.24,12.24,0,0,1,103.14.29Z"/><path class="cls-1" d="M118.51.73l.58,3.45.39.51V18.4h-4.35V.73Zm8.64-.44-.43,4h-1.26a9.23,9.23,0,0,0-2.85.46c-1,.32-2.16.78-3.6,1.41l-.28-2.56a16.31,16.31,0,0,1,3.81-2.46,9.07,9.07,0,0,1,3.75-.89Z"/><path class="cls-1" d="M132.3,10.41l2.23.32a2.19,2.19,0,0,0-.74,1.1,1.66,1.66,0,0,0,.11,1.26,1.64,1.64,0,0,0,1.35.74l6.55.86a5.75,5.75,0,0,1,3.75,1.57,5.3,5.3,0,0,1,1.08,3.58,5.8,5.8,0,0,1-.87,3.42A4.62,4.62,0,0,1,142.94,25a22.5,22.5,0,0,1-5.28.49,29,29,0,0,1-4.35-.27,7.52,7.52,0,0,1-2.76-.9,3.6,3.6,0,0,1-1.46-1.62,6.32,6.32,0,0,1-.43-2.47,4.5,4.5,0,0,1,.38-1.94,3.83,3.83,0,0,1,1.24-1.42,9.77,9.77,0,0,1,2.34-1.17l2.45-1.05,1.69.61-1.58,1.12a15.61,15.61,0,0,0-1.35,1.1,3.4,3.4,0,0,0-.76,1,3,3,0,0,0-.23,1.24,2.55,2.55,0,0,0,.41,1.55,2.3,2.3,0,0,0,1.46.74,16.78,16.78,0,0,0,2.92.2,17,17,0,0,0,3-.2,2.37,2.37,0,0,0,1.46-.72,2.41,2.41,0,0,0,.41-1.5,2.17,2.17,0,0,0-.25-1.17,1.67,1.67,0,0,0-.9-.59,10.44,10.44,0,0,0-1.8-.36l-5.91-.72a3.78,3.78,0,0,1-2-.74,3,3,0,0,1-1-1.44,3.5,3.5,0,0,1-.16-1.69,3.79,3.79,0,0,1,.61-1.57A2.78,2.78,0,0,1,132.3,10.41ZM137.48.29a16.23,16.23,0,0,1,4.74.56,4.33,4.33,0,0,1,2.5,1.8,6.27,6.27,0,0,1,.75,3.26,6.1,6.1,0,0,1-.75,3.19,4.44,4.44,0,0,1-2.52,1.81,15.6,15.6,0,0,1-4.75.58,15.44,15.44,0,0,1-4.74-.58,4.5,4.5,0,0,1-2.52-1.8,5.94,5.94,0,0,1-.77-3.2,6.17,6.17,0,0,1,.77-3.26,4.39,4.39,0,0,1,2.54-1.8A16.35,16.35,0,0,1,137.48.29Zm0,2.85a5.75,5.75,0,0,0-3.14.61,2.49,2.49,0,0,0-.86,2.16A2.46,2.46,0,0,0,134.31,8a5.63,5.63,0,0,0,3.14.63A5.49,5.49,0,0,0,140.56,8a2.48,2.48,0,0,0,.85-2.11,2.51,2.51,0,0,0-.85-2.16A5.61,5.61,0,0,0,137.45,3.14ZM147.53.73l-.26,2-4.6.51L141.37.73Z"/><path class="cls-1" d="M153.18.73l3.92,12.16c.12.41.23.83.33,1.25s.18.83.25,1.24h.9l-1.37,3h-1.15a1.43,1.43,0,0,1-.9-.29,1.35,1.35,0,0,1-.54-.79L148.53.73Zm14.25,0-6.62,18.21a16.58,16.58,0,0,1-1.17,2.5,9.34,9.34,0,0,1-1.78,2.25,7.86,7.86,0,0,1-2.56,1.59,7.75,7.75,0,0,1-3.42.43l-.36-2.59a8.77,8.77,0,0,0,3.37-1.66,7.14,7.14,0,0,0,1.89-2.66l1-2.31a17.09,17.09,0,0,0,.63-1.81c.2-.69.38-1.28.52-1.79L162.75.73Z"/><path class="cls-2" d="M65.4,6.29a2.21,2.21,0,0,0,.29-1.24,1.73,1.73,0,0,0-.62-1.47,3.6,3.6,0,0,0-2-.41,4.69,4.69,0,0,0-2,.33,1.91,1.91,0,0,0-1,1.28,8.85,8.85,0,0,0-.26,2h4.19C64.77,6.73,65.21,6.58,65.4,6.29Z"/><path class="cls-3" d="M68.39,1.29Q66.72,0,62.92,0a11,11,0,0,0-4.47.76A4.84,4.84,0,0,0,56,3.26,11.42,11.42,0,0,0,55.16,8h0a1.27,1.27,0,0,0,1.28,1.26l8.89,0a5.28,5.28,0,0,0,3.68-1,4,4,0,0,0,1-3.09A4.62,4.62,0,0,0,68.39,1.29Z"/><path class="cls-4" d="M65.4,6.29c-.19.29-.63.44-1.32.44H61.31a1.28,1.28,0,0,1-1.26-1.52,3.92,3.92,0,0,1,.1-.43,1.91,1.91,0,0,1,1-1.28,4.69,4.69,0,0,1,2-.33,3.6,3.6,0,0,1,2,.41,1.73,1.73,0,0,1,.62,1.47A2.21,2.21,0,0,1,65.4,6.29Z"/><path class="cls-3" d="M56.69,9.72a1.54,1.54,0,0,0-1.51,1.55c0,.51,0,1,.07,1.33a8.66,8.66,0,0,0,.55,2.71,5.21,5.21,0,0,0,1.26,1.94,5.55,5.55,0,0,0,1.2.84,7,7,0,0,0,2.34.69A14.35,14.35,0,0,0,63,19a11.65,11.65,0,0,0,2.91-.22,5.47,5.47,0,0,0,.58-.15,1.51,1.51,0,0,0,1-1.75h0a1.52,1.52,0,0,0-2-1.12l-.1,0a7.44,7.44,0,0,1-2.23.55,3.41,3.41,0,0,1-1.6-.21,2.36,2.36,0,0,1-.86-.56,2.45,2.45,0,0,1-.6-1,4.24,4.24,0,0,1,.19-2.35c0-.15.09-.31.14-.49a1.52,1.52,0,0,0-1.47-1.94Z"/></g></g></svg>