<svg xmlns="http://www.w3.org/2000/svg" viewBox="0 0 47.47 60.43"><defs><style>.cls-1{fill:#6aad9a;}.cls-2{fill:#545454;}</style></defs><title>Recurso 1</title><g id="Capa_2" data-name="Capa 2"><g id="Capa_1-2" data-name="Capa 1"><path class="cls-1" d="M42.18,4.13Q36.89,0,24.75,0,15.92,0,10.48,2.43a15.43,15.43,0,0,0-8,8Q0,15.93,0,25.34v0a4.06,4.06,0,0,0,4.09,4l28.33.12q8.36,0,11.75-3.25t3.3-9.85Q47.47,8.25,42.18,4.13ZM32.66,20.05c-.61.93-2,1.4-4.22,1.4H15.1a31.93,31.93,0,0,1,.48-4.71.59.59,0,0,1,0-.13s0-.05,0-.07,0-.08,0-.12c.08-.42.18-.82.28-1.18A6.11,6.11,0,0,1,19,11.16a14.67,14.67,0,0,1,6.21-1.06c3,0,5.09.43,6.36,1.31s1.92,2.44,2,4.7A7.11,7.11,0,0,1,32.66,20.05Z"/><path class="cls-1" d="M15.58,16.74a31.93,31.93,0,0,0-.48,4.71h4.52A4.08,4.08,0,0,1,15.58,16.74Z"/><path class="cls-1" d="M15.61,16.54c0-.05,0-.08,0-.12S15.62,16.49,15.61,16.54Z"/><path class="cls-2" d="M15.6,16.61a.59.59,0,0,0,0,.13l0-.2S15.6,16.59,15.6,16.61Z"/><path class="cls-2" d="M15.64,16.42c.08-.42.18-.82.28-1.18C15.82,15.6,15.72,16,15.64,16.42Z"/><path class="cls-1" d="M4.89,31A4.87,4.87,0,0,0,.07,35.94c0,1.63.12,3.05.23,4.23a27.29,27.29,0,0,0,1.76,8.64,16.77,16.77,0,0,0,4,6.2A16.36,16.36,0,0,0,9.9,57.67a22.63,22.63,0,0,0,7.44,2.22,44.44,44.44,0,0,0,7.5.53,36.91,36.91,0,0,0,9.28-.69c.65-.15,1.26-.31,1.84-.48a4.84,4.84,0,0,0,3.35-5.6h0a4.85,4.85,0,0,0-6.5-3.56l-.31.12A22.82,22.82,0,0,1,25.4,52a11.42,11.42,0,0,1-5.13-.64,7.92,7.92,0,0,1-2.74-1.81,7.82,7.82,0,0,1-1.9-3.33c-.48-1.76-.44-3.48.62-7.47.13-.49.27-1,.43-1.55A4.84,4.84,0,0,0,12,31Z"/></g></g></svg>