<svg xmlns="http://www.w3.org/2000/svg" viewBox="0 0 208.86 48.29"><defs><style>.cls-1{fill:#545454;}.cls-2{fill:#fff;}.cls-3{fill:none;}.cls-4{fill:#69e4b9;}</style></defs><title>Recurso 13</title><g id="Capa_2" data-name="Capa 2"><g id="Capa_1-2" data-name="Capa 1"><polyline class="cls-1" points="208.86 0 208.86 48.29 0 48.29 0 0"/><path class="cls-2" d="M30.53,14.42c.6,0,1.26,0,2,.08a16.83,16.83,0,0,1,2.19.28,9.39,9.39,0,0,1,2,.62l-.5,2.73c-.89-.05-1.77-.08-2.65-.11l-2.29,0a7.11,7.11,0,0,0-2.89.48,2.93,2.93,0,0,0-1.53,1.73,10,10,0,0,0-.47,3.48,10,10,0,0,0,.47,3.47,3,3,0,0,0,1.53,1.75,6.91,6.91,0,0,0,2.89.5c.36,0,.84,0,1.42,0s1.23-.06,1.91-.1,1.35-.11,2-.18l.43,2.8a13,13,0,0,1-3.13.83,23.35,23.35,0,0,1-3.42.25,12.07,12.07,0,0,1-5.08-.9,5.38,5.38,0,0,1-2.75-2.93,14.56,14.56,0,0,1-.84-5.45,14.18,14.18,0,0,1,.86-5.46,5.41,5.41,0,0,1,2.77-2.91A12.18,12.18,0,0,1,30.53,14.42Z"/><path class="cls-2" d="M48.35,14.42a12.32,12.32,0,0,1,5.16.9,5.44,5.44,0,0,1,2.78,2.95,14.65,14.65,0,0,1,.84,5.44,14.46,14.46,0,0,1-.84,5.42,5.47,5.47,0,0,1-2.78,2.95,12.13,12.13,0,0,1-5.16.92,12,12,0,0,1-5.1-.92,5.56,5.56,0,0,1-2.79-2.95,14.22,14.22,0,0,1-.86-5.42,14.41,14.41,0,0,1,.86-5.44,5.52,5.52,0,0,1,2.79-2.95A12.2,12.2,0,0,1,48.35,14.42Zm0,3.32a5,5,0,0,0-2.5.52,2.93,2.93,0,0,0-1.32,1.82,13.14,13.14,0,0,0-.39,3.63,13.27,13.27,0,0,0,.39,3.64,2.91,2.91,0,0,0,1.32,1.8,5.28,5.28,0,0,0,2.5.5,5.47,5.47,0,0,0,2.55-.5,2.81,2.81,0,0,0,1.32-1.8,13.75,13.75,0,0,0,.38-3.64,13.61,13.61,0,0,0-.38-3.63,2.83,2.83,0,0,0-1.32-1.82A5.21,5.21,0,0,0,48.35,17.74Z"/><path class="cls-2" d="M64.62,14.85l.58,3.46.39.51V32.53H61.24V14.85Zm8.64-.43-.43,4H71.57a9.24,9.24,0,0,0-2.85.47c-1,.32-2.16.78-3.6,1.41l-.29-2.56a16.57,16.57,0,0,1,3.82-2.46,9.07,9.07,0,0,1,3.75-.89Z"/><path class="cls-2" d="M99.29,14.85l.43,3.46.36.51V32.53H95.72V14.85Zm8.06-.43q4.94,0,4.93,4.86V32.53h-4.35V20.61a2.9,2.9,0,0,0-.51-2,2.19,2.19,0,0,0-1.69-.54,6.94,6.94,0,0,0-2.74.59,37.22,37.22,0,0,0-3.38,1.71l-.18-2.63a16.78,16.78,0,0,1,4-2.48A9.79,9.79,0,0,1,107.35,14.42Z"/><path class="cls-2" d="M125,14.42q4.29,0,6.16,1.5A5.39,5.39,0,0,1,133,20.33,5,5,0,0,1,131.88,24,5.12,5.12,0,0,1,128,25.22H117.93v-2.7h8.9c.81,0,1.33-.21,1.56-.64a3.37,3.37,0,0,0,.34-1.59,2.41,2.41,0,0,0-.84-2.05,4.88,4.88,0,0,0-2.76-.58,6,6,0,0,0-2.62.47,2.63,2.63,0,0,0-1.32,1.69,12.74,12.74,0,0,0-.38,3.53,12,12,0,0,0,.47,3.78A2.92,2.92,0,0,0,122.83,29a7.18,7.18,0,0,0,2.88.49c.89,0,1.91,0,3.08-.11s2.28-.17,3.36-.29l.44,2.77a12.17,12.17,0,0,1-2.24.65c-.84.17-1.71.29-2.61.38S126,33,125.21,33A12,12,0,0,1,120,32a5.8,5.8,0,0,1-2.84-3,13.45,13.45,0,0,1-.88-5.29,14.08,14.08,0,0,1,.88-5.52,5.36,5.36,0,0,1,2.81-2.9A12.15,12.15,0,0,1,125,14.42Z"/><path class="cls-2" d="M140.33,14.85l.57,3.46.4.51V32.53h-4.36V14.85Zm8.64-.43-.44,4h-1.26a9.23,9.23,0,0,0-2.84.47c-1,.32-2.16.78-3.6,1.41l-.29-2.56a16.36,16.36,0,0,1,3.82-2.46,9,9,0,0,1,3.74-.89Z"/><path class="cls-2" d="M154.11,24.54l2.24.32a2.19,2.19,0,0,0-.74,1.1,1.61,1.61,0,0,0,.11,1.26,1.64,1.64,0,0,0,1.35.74l6.55.86a5.74,5.74,0,0,1,3.74,1.57A5.3,5.3,0,0,1,168.44,34a5.88,5.88,0,0,1-.86,3.42,4.65,4.65,0,0,1-2.83,1.71,22.41,22.41,0,0,1-5.27.49,29.09,29.09,0,0,1-4.36-.27,7.46,7.46,0,0,1-2.75-.9,3.55,3.55,0,0,1-1.46-1.62,6.18,6.18,0,0,1-.43-2.47,4.36,4.36,0,0,1,.38-1.94A3.74,3.74,0,0,1,152.1,31a9.4,9.4,0,0,1,2.34-1.17l2.45-1.05,1.69.61L157,30.48a15.61,15.61,0,0,0-1.35,1.1,3.18,3.18,0,0,0-.75,1,2.8,2.8,0,0,0-.24,1.24,2.49,2.49,0,0,0,.42,1.55,2.32,2.32,0,0,0,1.46.74,16.75,16.75,0,0,0,2.91.19,17.11,17.11,0,0,0,2.95-.19,2.42,2.42,0,0,0,1.46-.72,2.35,2.35,0,0,0,.42-1.5,2.13,2.13,0,0,0-.26-1.17,1.6,1.6,0,0,0-.9-.59,9.56,9.56,0,0,0-1.8-.36l-5.9-.72a3.82,3.82,0,0,1-2-.74,3,3,0,0,1-1-1.44,3.5,3.5,0,0,1-.17-1.69,3.81,3.81,0,0,1,.62-1.57A2.75,2.75,0,0,1,154.11,24.54Zm5.19-10.12A16.11,16.11,0,0,1,164,15a4.26,4.26,0,0,1,2.5,1.8,6.15,6.15,0,0,1,.76,3.26,6,6,0,0,1-.76,3.19A4.38,4.38,0,0,1,164,25a15.56,15.56,0,0,1-4.75.58,15.37,15.37,0,0,1-4.73-.58,4.43,4.43,0,0,1-2.52-1.8,5.85,5.85,0,0,1-.78-3.2,6.05,6.05,0,0,1,.78-3.26,4.36,4.36,0,0,1,2.54-1.8A16.3,16.3,0,0,1,159.3,14.42Zm0,2.85a5.73,5.73,0,0,0-3.13.61,2.46,2.46,0,0,0-.86,2.16,2.43,2.43,0,0,0,.86,2.11,5.63,5.63,0,0,0,3.13.62,5.57,5.57,0,0,0,3.12-.62,2.48,2.48,0,0,0,.84-2.11,2.51,2.51,0,0,0-.84-2.16A5.67,5.67,0,0,0,159.26,17.27Zm10.08-2.42-.25,2-4.61.51-1.29-2.53Z"/><path class="cls-2" d="M175,14.85,178.92,27c.12.41.23.83.32,1.25s.18.83.25,1.24h.9l-1.36,3h-1.16a1.47,1.47,0,0,1-.9-.29,1.45,1.45,0,0,1-.54-.79l-6.08-16.6Zm14.26,0-6.62,18.22a18.8,18.8,0,0,1-1.17,2.5,9.39,9.39,0,0,1-1.79,2.25,7.92,7.92,0,0,1-2.55,1.59,7.79,7.79,0,0,1-3.42.43l-.36-2.59a8.65,8.65,0,0,0,3.36-1.66,6.93,6.93,0,0,0,1.89-2.66l1-2.31c.21-.52.42-1.13.63-1.81l.52-1.79,3.85-12.17Z"/><path class="cls-3" d="M87.22,20.42a2.3,2.3,0,0,0,.29-1.24,1.71,1.71,0,0,0-.63-1.47,3.56,3.56,0,0,0-2-.41,4.69,4.69,0,0,0-2,.33,1.88,1.88,0,0,0-1,1.28,8.28,8.28,0,0,0-.26,1.95h4.18C86.58,20.86,87,20.71,87.22,20.42Z"/><path class="cls-4" d="M90.2,15.42q-1.67-1.29-5.46-1.29a11.08,11.08,0,0,0-4.48.76,4.84,4.84,0,0,0-2.5,2.5A11.59,11.59,0,0,0,77,22.08h0a1.28,1.28,0,0,0,1.28,1.26l8.89,0a5.3,5.3,0,0,0,3.69-1,4,4,0,0,0,1-3.09A4.59,4.59,0,0,0,90.2,15.42Z"/><path class="cls-1" d="M87.22,20.42c-.2.29-.64.44-1.33.44H83.13a1.29,1.29,0,0,1-1.27-1.52,3.83,3.83,0,0,1,.11-.43,1.88,1.88,0,0,1,1-1.28,4.69,4.69,0,0,1,2-.33,3.56,3.56,0,0,1,2,.41,1.71,1.71,0,0,1,.63,1.47A2.3,2.3,0,0,1,87.22,20.42Z"/><path class="cls-4" d="M78.51,23.85A1.52,1.52,0,0,0,77,25.4a12.43,12.43,0,0,0,.07,1.33,8.38,8.38,0,0,0,.55,2.71,5.29,5.29,0,0,0,1.26,1.94,5.11,5.11,0,0,0,1.2.84,7.13,7.13,0,0,0,2.33.69,14.43,14.43,0,0,0,2.35.17,11.61,11.61,0,0,0,2.91-.22c.21,0,.4-.1.58-.15a1.52,1.52,0,0,0,1-1.76h0a1.52,1.52,0,0,0-2-1.11l-.09,0a7.22,7.22,0,0,1-2.23.54,3.53,3.53,0,0,1-1.61-.2,2.54,2.54,0,0,1-.86-.56,2.37,2.37,0,0,1-.59-1.05,4.11,4.11,0,0,1,.19-2.34c0-.15.09-.31.13-.49a1.52,1.52,0,0,0-1.46-1.94Z"/></g></g></svg>